<svg width="12" height="13" viewBox="0 0 12 13" fill="none" xmlns="http://www.w3.org/2000/svg">
<path d="M5.99406 12.9943C4.2558 12.9943 2.51754 12.9943 0.782273 12.9943C0.251803 12.9943 0.00604876 12.7444 0.00604876 12.202C0.00604876 10.2029 0.00904576 8.2008 0.00305176 6.20174C0.00305176 5.9092 0.0959588 5.68369 0.305749 5.48866C0.482572 5.3241 0.64441 5.14431 0.818237 4.97671C0.911144 4.88529 0.947108 4.78472 0.947108 4.65369C0.941114 3.66939 0.944111 2.6851 0.944111 1.69776C0.944111 1.32293 1.13892 1.05172 1.4566 0.963345C1.54051 0.938967 1.62443 0.942014 1.70835 0.942014C2.67338 0.942014 3.63542 0.938967 4.60045 0.945061C4.73232 0.945061 4.82523 0.902398 4.91514 0.807931C5.10695 0.603758 5.30775 0.402633 5.50855 0.207602C5.79326 -0.0697066 6.20685 -0.0697066 6.49156 0.21065C6.69536 0.411775 6.89916 0.615947 7.09396 0.823167C7.17788 0.911541 7.26479 0.945061 7.38467 0.945061C8.3527 0.942014 9.32073 0.942014 10.2918 0.942014C10.7773 0.942014 11.047 1.21932 11.047 1.71909C11.047 2.70034 11.05 3.67854 11.044 4.65978C11.044 4.78472 11.077 4.88224 11.1669 4.96756C11.3587 5.15345 11.5385 5.35153 11.7303 5.53437C11.9131 5.71112 11.9971 5.92443 11.9971 6.17432C11.9971 8.19471 12.0001 10.2151 11.9971 12.2355C11.9971 12.72 11.7123 12.9943 11.2358 12.9943C9.48857 12.9943 7.74131 12.9943 5.99406 12.9943ZM6.00305 1.28941C4.59146 1.28941 3.17688 1.28941 1.76529 1.28941C1.39966 1.28941 1.30075 1.38997 1.30075 1.7587C1.30075 3.42865 1.30075 5.0986 1.29776 6.76855C1.29776 6.84778 1.32773 6.89044 1.38467 6.93006C1.51654 7.01234 1.64541 7.10071 1.77728 7.17994C2.70035 7.75589 3.62643 8.32879 4.54651 8.90779C4.64541 8.97178 4.72033 8.97178 4.81624 8.90779C5.08597 8.73409 5.36169 8.56649 5.63442 8.40193C5.87418 8.25566 6.11394 8.25261 6.3567 8.40193C6.63242 8.57563 6.91114 8.74323 7.18687 8.91693C7.26179 8.96264 7.32173 8.97788 7.40565 8.92607C8.4516 8.27089 9.49756 7.61876 10.5465 6.96967C10.6634 6.89654 10.7053 6.81121 10.7053 6.67408C10.7024 5.0407 10.7024 3.40427 10.7024 1.77089C10.7024 1.40521 10.5885 1.28941 10.2258 1.28941C8.81724 1.28941 7.41164 1.28941 6.00305 1.28941ZM5.98507 12.6438C7.70835 12.6438 9.43162 12.6438 11.1549 12.6438C11.2208 12.6438 11.2868 12.6469 11.3497 12.6377C11.4876 12.6195 11.5805 12.5341 11.6254 12.4061C11.6704 12.2782 11.6464 12.1502 11.5385 12.0588C11.4696 12.0009 11.3947 11.9521 11.3167 11.9033C10.6484 11.4858 9.98007 11.0684 9.31174 10.6539C8.27478 10.0079 7.23482 9.3588 6.19486 8.71276C6.05999 8.62743 5.91914 8.63048 5.78427 8.71581C5.6584 8.79504 5.53252 8.87732 5.40365 8.95655C3.98907 9.84028 2.57748 10.721 1.16289 11.6016C0.950105 11.7327 0.737318 11.8637 0.527527 12.0039C0.371683 12.1075 0.317737 12.2446 0.359695 12.394C0.40465 12.5524 0.527527 12.6408 0.710344 12.6469C0.7553 12.6469 0.800255 12.6469 0.84521 12.6469C2.5595 12.6438 4.27078 12.6438 5.98507 12.6438ZM4.3517 9.19729C4.08197 9.02968 3.83322 8.87732 3.58747 8.72495C2.5535 8.08196 1.51954 7.43897 0.485569 6.79598C0.350704 6.71065 0.34471 6.71674 0.34471 6.87825C0.34471 8.42936 0.34471 9.98351 0.34471 11.5346C0.34471 11.5742 0.338716 11.6321 0.362692 11.6504C0.40465 11.6839 0.443611 11.6321 0.479575 11.6077C1.27078 11.1171 2.06199 10.6234 2.8532 10.1298C3.34171 9.82809 3.83022 9.52336 4.3517 9.19729ZM11.6404 9.20338C11.6404 8.4324 11.6404 7.66142 11.6404 6.8874C11.6404 6.83864 11.6644 6.77464 11.6104 6.74722C11.5655 6.72589 11.5295 6.77464 11.4936 6.79598C10.8552 7.19213 10.2168 7.59133 9.57848 7.98749C8.98207 8.35927 8.38567 8.728 7.78927 9.09977C7.72633 9.13939 7.60345 9.17291 7.7593 9.26738C9.00005 10.0384 10.2378 10.8093 11.4756 11.5803C11.5175 11.6047 11.5595 11.6595 11.6074 11.6352C11.6674 11.6077 11.6404 11.5346 11.6404 11.4828C11.6404 10.7271 11.6404 9.96522 11.6404 9.20338ZM6.68037 0.926777C6.50355 0.725652 6.34471 0.548906 6.1589 0.399585C6.05999 0.320354 5.93112 0.323402 5.83522 0.396538C5.64041 0.542811 5.48757 0.731747 5.29576 0.926777C5.77528 0.926777 6.21284 0.926777 6.68037 0.926777ZM11.05 5.36677C11.05 5.7934 11.047 6.17736 11.053 6.56133C11.053 6.64056 11.1099 6.61618 11.1489 6.5918C11.2718 6.51562 11.4007 6.44553 11.5145 6.35716C11.6434 6.25659 11.6914 6.07071 11.6045 5.94881C11.4576 5.73854 11.2658 5.57094 11.05 5.36677ZM0.941114 5.40943C0.929126 5.40334 0.914141 5.39724 0.902153 5.39115C0.752303 5.54351 0.599455 5.69283 0.455599 5.84825C0.296758 6.01585 0.31474 6.23222 0.500554 6.37239C0.599455 6.44858 0.710344 6.50648 0.81524 6.57657C0.914141 6.64361 0.944111 6.60399 0.941114 6.49733C0.938117 6.22917 0.941114 5.961 0.941114 5.69283C0.941114 5.59837 0.941114 5.5039 0.941114 5.40943Z" fill="#7A7A7A"/>
<path d="M6.00307 5.06203C4.74433 5.06203 3.48559 5.06203 2.22685 5.06203C2.03204 5.06203 2.02006 5.04375 2.01406 4.87614C2.00807 4.73292 2.07101 4.6933 2.20287 4.6933C4.73534 4.69635 7.26781 4.69635 9.79728 4.6933C9.97111 4.6933 9.96511 4.79082 9.9741 4.91576C9.98609 5.07117 9.89318 5.06203 9.79428 5.06203C8.52955 5.06203 7.26781 5.06203 6.00307 5.06203Z" fill="#7A7A7A"/>
<path d="M5.99406 3.30066C4.73232 3.30066 3.46758 3.29762 2.20585 3.30371C2.06199 3.30371 2.01404 3.258 2.01404 3.11173C2.01404 2.96241 2.09196 2.95327 2.20585 2.95327C3.23981 2.95631 4.27378 2.95327 5.30774 2.95327C6.79426 2.95327 8.28377 2.95327 9.77028 2.95327C9.88117 2.95327 9.97708 2.95022 9.97708 3.11478C9.97708 3.2641 9.92613 3.30676 9.78527 3.30676C8.51753 3.30066 7.2558 3.30066 5.99406 3.30066Z" fill="#7A7A7A"/>
<path d="M5.99106 6.80207C4.72932 6.80207 3.46459 6.79902 2.20285 6.80512C2.05899 6.80512 2.01404 6.75636 2.01404 6.61009C2.01404 6.46077 2.09496 6.45162 2.20585 6.45162C3.53951 6.45467 4.87318 6.45162 6.20385 6.45162C7.39666 6.45162 8.58946 6.45467 9.78527 6.44858C9.92912 6.44858 9.97707 6.49734 9.97408 6.64361C9.97408 6.79293 9.89316 6.80207 9.78227 6.80207C8.51754 6.80207 7.2558 6.80207 5.99106 6.80207Z" fill="#7A7A7A"/>
</svg>
