<svg width="12" height="8" viewBox="0 0 12 8" fill="none" xmlns="http://www.w3.org/2000/svg">
<g clip-path="url(#clip0_1047_1062)">
<path d="M6.00749 1.43489e-07C7.74619 1.43489e-07 9.48489 1.43489e-07 11.2236 1.43489e-07C11.7542 1.43489e-07 12 0.245816 12 0.782413C12 2.75493 12 4.72746 12 6.70297C12 7.1946 11.7212 7.47639 11.2296 7.47639C7.75219 7.47639 4.27479 7.47639 0.8004 7.47639C0.272795 7.4734 0 7.2006 0 6.67899C0 4.70947 0 2.74294 0 0.77342C0 0.395703 0.155883 0.143892 0.452661 0.0329754C0.554584 -0.00299761 0.656508 1.43489e-07 0.761429 1.43489e-07C2.51212 1.43489e-07 4.25981 1.43489e-07 6.00749 1.43489e-07ZM6.0045 0.341744C4.28679 0.341744 2.56907 0.341744 0.848364 0.341744C0.782413 0.341744 0.716463 0.338746 0.65351 0.347739C0.521609 0.368724 0.416687 0.437672 0.374719 0.566575C0.33275 0.698476 0.356732 0.824382 0.467649 0.92031C0.515613 0.962279 0.572571 0.998252 0.62653 1.03123C2.33225 2.07744 4.04097 3.12066 5.74669 4.17287C5.92656 4.28379 6.08544 4.28679 6.25931 4.17287C6.58306 3.96603 6.91282 3.76817 7.24257 3.56732C8.31576 2.91082 9.38896 2.25431 10.4622 1.5948C10.8039 1.38496 11.1426 1.17512 11.4784 0.962278C11.6253 0.869348 11.6792 0.728454 11.6403 0.590557C11.5983 0.437672 11.4724 0.344742 11.2895 0.338746C11.2146 0.335748 11.1396 0.338746 11.0647 0.338746C9.38296 0.341744 7.69223 0.341744 6.0045 0.341744ZM5.99251 7.11367C7.71022 7.11367 9.43093 7.11367 11.1486 7.11367C11.2236 7.11367 11.2985 7.11666 11.3735 7.10467C11.5084 7.08369 11.6013 7.00275 11.6403 6.87085C11.6792 6.73895 11.6433 6.62203 11.5413 6.5321C11.4964 6.49313 11.4454 6.46016 11.3945 6.43018C10.0754 5.62079 8.75344 4.81439 7.43442 4.002C7.35049 3.95104 7.28753 3.94804 7.2036 4.002C6.94579 4.16688 6.68499 4.31976 6.42718 4.48464C6.14539 4.6645 5.8666 4.6645 5.58481 4.48464C5.333 4.32276 5.0722 4.17287 4.82038 4.01399C4.72745 3.95403 4.65551 3.95703 4.56258 4.01699C3.65426 4.58056 2.74294 5.13815 1.83163 5.69573C1.41494 5.95054 0.995254 6.20535 0.578566 6.46016C0.47964 6.52011 0.389708 6.59206 0.368723 6.71796C0.33275 6.96078 0.485636 7.11666 0.764427 7.11666C2.50612 7.11367 4.24781 7.11367 5.99251 7.11367ZM11.6553 3.74419C11.6553 2.97677 11.6553 2.20635 11.6553 1.43892C11.6553 1.331 11.6553 1.27105 11.5234 1.35199C10.2793 2.11941 9.03223 2.88384 7.78516 3.64527C7.66525 3.72021 7.70122 3.75918 7.79415 3.81614C8.01299 3.94504 8.22883 4.07994 8.44467 4.21484C9.4639 4.84137 10.4861 5.4679 11.5054 6.09443C11.6463 6.18137 11.6493 6.17837 11.6493 6.0045C11.6553 5.25206 11.6553 4.49663 11.6553 3.74419ZM0.35973 3.7322C0.35973 4.47265 0.35973 5.21009 0.35973 5.95054C0.35973 5.98651 0.35973 6.01949 0.35973 6.05546C0.356732 6.1364 0.380714 6.17237 0.461654 6.11841C0.503622 6.09143 0.545591 6.06745 0.590557 6.04047C1.13015 5.71072 1.67275 5.37797 2.21234 5.04821C2.88384 4.63752 3.55833 4.22383 4.22983 3.81314C4.33175 3.75319 4.33475 3.71421 4.22983 3.65426C4.01099 3.52536 3.79515 3.38746 3.57932 3.25556C2.56308 2.63203 1.54984 2.01149 0.536598 1.39096C0.491631 1.36398 0.446665 1.30402 0.392706 1.334C0.335748 1.36398 0.35973 1.43293 0.35973 1.48389C0.35973 2.23333 0.35973 2.98276 0.35973 3.7322Z" fill="black"/>
</g>
<defs>
<clipPath id="clip0_1047_1062">
<rect width="12" height="7.4734" fill="white"/>
</clipPath>
</defs>
</svg>
