<svg width="15" height="8" viewBox="0 0 15 8" fill="none" xmlns="http://www.w3.org/2000/svg">
<g clip-path="url(#clip0_1001_458)">
<path d="M7.71091 0C8.72385 0.0043221 9.88451 0.293902 11.0072 0.773655C12.3873 1.36578 13.6197 2.19562 14.734 3.21132C14.7888 3.25886 14.8395 3.31073 14.8901 3.36259C15.0379 3.51386 15.0421 3.717 14.8859 3.85963C14.5398 4.17082 14.1937 4.48634 13.8266 4.77159C12.6532 5.68356 11.3786 6.3967 9.96471 6.83323C9.0404 7.11849 8.09498 7.26112 7.12425 7.21358C6.07332 7.15739 5.06459 6.89807 4.08964 6.49179C2.62087 5.86941 1.30826 4.99634 0.143379 3.88989C0.084291 3.8337 0.0294232 3.74726 0.00832024 3.66514C-0.0254445 3.54412 0.0294232 3.43607 0.122276 3.34962C0.599204 2.88284 1.11834 2.46792 1.66279 2.08757C2.74749 1.32256 3.90815 0.717468 5.17855 0.345768C5.93826 0.125341 6.71063 0 7.71091 0ZM7.49988 0.669925C5.92138 0.669925 4.62987 1.98816 4.62565 3.60463C4.62143 5.22974 5.90871 6.5523 7.49144 6.55662C9.07838 6.55662 10.3699 5.23838 10.3699 3.61759C10.3741 1.99249 9.0826 0.669925 7.49988 0.669925ZM0.814454 3.60463C1.71766 4.51227 4.15717 5.98178 4.92531 6.07687C4.30489 5.37237 3.97568 4.55549 3.97568 3.60463C3.97568 2.65377 4.30489 1.83689 4.94642 1.1151C3.3848 1.66833 2.03843 2.5241 0.814454 3.60463ZM14.1853 3.61759C13.4425 2.7964 10.9988 1.32256 10.0787 1.13671C11.3069 2.46359 11.3828 4.66786 10.066 6.09848C11.6107 5.55389 12.9529 4.6938 14.1853 3.61759Z" fill="black"/>
<path d="M5.7653 3.15513C5.87503 3.43174 6.0523 3.62624 6.3182 3.72997C6.49968 3.79912 6.68961 3.80344 6.87954 3.75158C7.26361 3.6392 7.53373 3.27615 7.53795 2.86987C7.54639 2.43334 7.28893 2.1135 6.78246 1.9363C7.31848 1.65104 8.24701 1.69858 8.85477 2.39876C9.42455 3.05572 9.44566 4.05845 8.9012 4.76727C8.37363 5.45016 7.40711 5.6533 6.65162 5.23406C5.85815 4.79753 5.56271 3.88989 5.7653 3.15513Z" fill="black"/>
</g>
<defs>
<clipPath id="clip0_1001_458">
<rect width="15" height="7.22222" fill="white"/>
</clipPath>
</defs>
</svg>
